#!OML:ASF F:\VICON\USERDATA\INSTALL\rory3\rory3.ASF
:FULLY-SPECIFIED
:DEGREES
139
root -0.100933 18.0483 -0.161798 -2.52059 -1.07545 -2.30575
lowerback 10.7739 -1.71438 -0.23675
upperback 0.300948 -2.15733 2.6104
thorax -5.62028 -1.02192 3.20365
lowerneck -18.2194 -2.53953 -1.98714
upperneck 20.5084 -2.92153 -0.199087
head 9.51799 -1.54256 -0.132734
rclavicle -1.19271e-014 5.56597e-015
rhumerus -34.9171 -23.4069 -74.1079
rradius 22.1173
rwrist 7.77718
rhand -19.2166 23.4168
rfingers 7.12502
rthumb 7.0961 -6.44422
lclavicle -1.19271e-014 5.56597e-015
lhumerus -24.6468 -3.63511 83.7487
lradius 30.3381
lwrist 8.6321
lhand -30.2006 20.4486
lfingers 7.12502
lthumb -3.51116 50.3995
rfemur -21.5122 4.74261 25.5189
rtibia 27.6295
rfoot -6.75893 1.39407
rtoes -0.0867707
lfemur 3.36336 -1.40981 -19.5555
ltibia 48.9572
lfoot 17.403 -14.3675
ltoes 17.1639
140
root -0.125699 18.1058 0.0263825 -2.58 -1.04797 -2.95038
lowerback 10.7089 -1.67979 0.34886
upperback 0.413343 -2.03326 2.77243
thorax -5.48703 -0.976265 3.0186
lowerneck -18.5312 -2.56246 -1.93609
upperneck 20.7301 -2.94134 -0.2809
head 9.65124 -1.55654 -0.178385
rclavicle 3.8763e-015 -1.19271e-015
rhumerus -34.4872 -23.3431 -74.3299
rradius 22.1205
rwrist 8.05048
rhand -19.1617 22.523
rfingers 7.12502
rthumb 7.14908 -7.33628
lclavicle 3.8763e-015 -1.19271e-015
lhumerus -24.6531 -3.99379 84.0538
lradius 29.9645
lwrist 8.74826
lhand -31.752 17.5776
lfingers 7.12502
lthumb -5.00927 47.4984
rfemur -20.5446 5.04459 26.3749
rtibia 27.2649
rfoot -6.55523 1.13126
rtoes 1.89547
lfemur 1.05451 -0.611842 -18.5376
ltibia 51.5209
lfoot 19.1906 -17.6472
ltoes 5.73065
141
root -0.149591 18.107 0.199281 -2.65394 -1.12312 -3.66942
lowerback 10.7597 -1.6044 1.01014
upperback 0.492009 -1.84376 2.92887
thorax -5.45789 -0.898129 2.7812
lowerneck -18.5731 -2.64991 -1.73119
upperneck 20.6796 -3.06751 -0.504097
head 9.63444 -1.62453 -0.306983
rclavicle -1.3244e-014 -7.95139e-016
rhumerus -34.1294 -22.7104 -74.8827
rradius 22.3978
rwrist 7.58188
rhand -19.123 22.2579
rfingers 7.12502
rthumb 7.18638 -7.6001
lclavicle -1.3244e-014 -7.95139e-016
lhumerus -24.8052 -4.41165 84.3491
lradius 29.6975
lwrist 8.77857
lhand -31.0318 21.1065
lfingers 7.12502
lthumb -4.31382 51.0426
rfemur -19.6866 5.29297 27.3756
rtibia 26.9275
rfoot -6.37943 0.952443
rtoes 2.178
lfemur 0.266953 -0.658117 -17.3954
ltibia 53.9479
lfoot 18.2178 -20.8922
ltoes -2.87589
142
root -0.173029 18.1284 0.371153 -2.65754 -1.13565 -4.44061
lowerback 10.92 -1.57594 1.74695
upperback 0.402243 -1.69778 3.07441
thorax -5.66577 -0.841708 2.50555
lowerneck -18.0066 -2.73044 -1.63862
upperneck 20.3621 -3.22536 -0.472737
head 9.41857 -1.68817 -0.320822
rclavicle 4.96962e-015 1.15295e-014
rhumerus -33.9443 -21.8188 -75.4655
rradius 22.6537
rwrist 6.91824
rhand -18.5683 22.5883
rfingers 7.12502
rthumb 7.72187 -7.25068
lclavicle 4.96962e-015 1.15295e-014
lhumerus -25.1538 -4.72246 84.5764
lradius 29.51
lwrist 8.54035
lhand -29.3819 23.4919
lfingers 7.12502
lthumb -2.72049 53.4543
rfemur -18.8557 5.45043 28.4274
rtibia 26.5968
rfoot -6.34635 0.754231
rtoes 2.6177
lfemur -1.14842 -0.409496 -16.1942
ltibia 56.2998
lfoot 19.7986 -21.0186
ltoes -3.34469
143
root -0.191814 18.1408 0.540011 -2.65533 -1.08638 -4.72392
lowerback 11.1165 -1.54067 1.95752
upperback 0.280184 -1.60777 3.14274
thorax -5.91178 -0.801101 2.45573
lowerneck -17.5385 -2.72131 -1.71691
upperneck 20.0908 -3.2336 -0.327707
head 9.24257 -1.68275 -0.24927
rclavicle 9.69075e-016 -2.54444e-014
rhumerus -33.8547 -21.1672 -75.7238
rradius 23.0504
rwrist 7.41134
rhand -18.0086 23.1665
rfingers 7.12502
rthumb 8.262 -6.65195
lclavicle 9.69075e-016 -2.54444e-014
lhumerus -25.4427 -4.6115 84.7828
lradius 29.2285
lwrist 7.87445
lhand -29.165 20.8982
lfingers 7.12502
lthumb -2.51109 50.8632
rfemur -18.2275 5.4886 28.9256
rtibia 26.6184
rfoot -6.52821 0.43755
rtoes 3.10594
lfemur -2.59967 -0.12283 -15.6169
ltibia 58.4543
lfoot 20.3716 -18.9964
ltoes -1.22959
144
root -0.211946 18.152 0.71042 -2.67261 -1.24539 -4.72703
lowerback 11.2519 -1.37398 1.83302
upperback 0.217312 -1.39536 3.12514
thorax -6.05724 -0.692891 2.47963
lowerneck -17.5339 -2.72199 -1.6611
upperneck 20.1903 -3.2624 -0.277804
head 9.2763 -1.68618 -0.24599
rclavicle 1.89342e-014 -1.66979e-014
rhumerus -33.5373 -20.3142 -76.2814
rradius 23.4711
rwrist 7.20879
rhand -17.6759 23.3387
rfingers 7.12502
rthumb 8.58315 -6.46684
lclavicle 1.89342e-014 -1.66979e-014
lhumerus -25.7645 -4.92241 85.0569
lradius 29.1619
lwrist 7.43319
lhand -29.7359 21.5883
lfingers 7.12502
lthumb -3.06238 51.5461
rfemur -17.6179 5.79869 29.1029
rtibia 26.7197
rfoot -6.56932 -0.0328431
rtoes 4.04022
lfemur -4.01748 0.281466 -15.4126
ltibia 60.4311
lfoot 20.1884 -20.2269
ltoes -2.1444
145
root -0.230331 18.1697 0.889043 -2.7685 -1.33491 -4.78611
lowerback 11.2626 -1.20976 1.8774
upperback 0.272218 -1.17574 3.07414
thorax -6.01315 -0.587165 2.36387
lowerneck -17.6555 -2.8392 -1.62055
upperneck 20.3239 -3.44905 -0.217169
head 9.34655 -1.76249 -0.259536
rclavicle -4.47266e-015 3.93594e-014
rhumerus -32.9127 -18.2805 -77.8078
rradius 24.0303
rwrist 2.74693
rhand -18.4583 20.7425
rfingers 7.12502
rthumb 7.82804 -9.09259
lclavicle -4.47266e-015 3.93594e-014
lhumerus -25.9737 -5.19648 85.2789
lradius 29.0357
lwrist 6.74616
lhand -29.3677 21.1963
lfingers 7.12502
lthumb -2.7068 51.1589
rfemur -16.9658 6.06204 29.3383
rtibia 26.9848
rfoot -6.80109 -0.712427
rtoes 6.76793
lfemur -5.45498 0.637256 -15.1808
ltibia 62.1853
lfoot 17.7201 -20.2598
ltoes -9.29842
146
root -0.24917 18.1895 1.07069 -2.96413 -1.37703 -4.59184
lowerback 11.1377 -1.10837 1.66851
upperback 0.489538 -1.08745 2.95315
thorax -5.71377 -0.540711 2.33079
lowerneck -17.6975 -2.91218 -1.68066
upperneck 20.2939 -3.56324 -0.0849201
head 9.3484 -1.80497 -0.219582
rclavicle -3.66509e-015 -1.23246e-014
rhumerus -32.5519 -21.0083 -76.3052
rradius 22.1407
rwrist 7.90032
rhand -16.3477 25.6538
rfingers 7.12502
rthumb 9.86469 -4.09508
lclavicle -3.66509e-015 -1.23246e-014
lhumerus -25.8985 -5.25275 85.3519
lradius 28.7231
lwrist 6.45654
lhand -29.4919 17.8223
lfingers 7.12502
lthumb -2.82679 47.7833
rfemur -16.1897 6.12647 29.2927
rtibia 27.2606
rfoot -7.46735 -0.856357
rtoes 6.93509
lfemur -6.65852 1.01638 -15.2542
ltibia 63.6932
lfoot 17.272 -20.0757
ltoes -6.12034
